<svg width="296" height="298" viewBox="0 0 296 298" fill="none" xmlns="http://www.w3.org/2000/svg">
<path d="M72.1 287.7C72.1 293.3 67.6 297.8 62 297.8H19.3C13.7 297.8 9.2 293.3 9.2 287.7V108.3C9.2 102.7 13.7 98.2 19.3 98.2H62.1C67.7 98.2 72.2 102.7 72.2 108.3L72.1 287.7Z" fill="white"/>
<path d="M40.7 81.4C63.178 81.4 81.4 63.178 81.4 40.7C81.4 18.222 63.178 0 40.7 0C18.222 0 0 18.222 0 40.7C0 63.178 18.222 81.4 40.7 81.4Z" fill="white"/>
<path d="M295.8 288.6C295.8 293.7 291.7 297.8 286.6 297.8H240.7C235.6 297.8 231.5 293.7 231.5 288.6V204.4C231.5 191.8 235.2 149.4 198.7 149.4C170.4 149.4 164.6 178.5 163.5 191.5V288.6C163.5 293.7 159.4 297.8 154.3 297.8H109.9C104.8 297.8 100.7 293.7 100.7 288.6V107.5C100.7 102.4 104.8 98.3 109.9 98.3H154.3C159.4 98.3 163.5 102.4 163.5 107.5V123.2C174 107.4 189.6 95.3 222.8 95.3C296.4 95.3 295.9 164 295.9 201.8L295.8 288.6Z" fill="white"/>
</svg>
