<svg width="16" height="14" viewBox="0 0 16 14" fill="none" xmlns="http://www.w3.org/2000/svg">
<path d="M15.9 1.6C15.4 1.8 14.8 2 14.3 2.1C14.6 2.1 14.9 1.6 15.1 1.4C15.3 1.1 15.5 0.8 15.6 0.4V0.3H15.5C14.9 0.6 14.3 0.9 13.6 1C13.5 1 13.5 1 13.5 1C13.4 0.9 13.4 0.9 13.3 0.8C13 0.6 12.7 0.4 12.4 0.2C11.9 0.1 11.4 0 10.9 0C10.5 0 10 0.2 9.60001 0.4C9.20001 0.6 8.80001 0.9 8.50001 1.3C8.20001 1.7 8.00001 2.1 7.90001 2.6C7.80001 3 7.80001 3.5 7.80001 3.9C7.80001 4 7.80001 4 7.80001 4C5.10001 3.6 3.00001 2.7 1.20001 0.7C1.10001 0.6 1.10001 0.6 1.00001 0.7C0.200006 1.9 0.600006 3.7 1.60001 4.6C1.70001 4.7 1.80001 4.9 2.00001 5C1.90001 5 1.30001 4.9 0.700006 4.6C0.600006 4.6 0.600006 4.6 0.600006 4.7C0.600006 4.8 0.600006 4.9 0.600006 5.1C0.700006 6.3 1.60001 7.4 2.70001 7.8C2.80001 7.8 3.00001 7.9 3.10001 7.9C2.90001 7.9 2.60001 8 1.90001 7.9C1.80001 7.9 1.80001 7.9 1.80001 8C2.30001 9.5 3.50001 9.9 4.40001 10.2C4.50001 10.2 4.60001 10.2 4.80001 10.2C4.50001 10.6 3.50001 11 3.00001 11.1C2.10001 11.4 1.20001 11.5 0.300006 11.4C0.200006 11.4 0.100006 11.4 0.100006 11.4V11.5C0.300006 11.6 0.500006 11.7 0.700006 11.8C1.30001 12.1 1.90001 12.4 2.50001 12.5C5.80001 13.4 9.40001 12.7 11.9 10.3C13.8 8.4 14.5 5.8 14.5 3.1C14.5 3 14.6 2.9 14.7 2.9C15.2 2.5 15.6 2.1 16 1.6C15.9 1.7 15.9 1.6 15.9 1.6C15.9 1.5 15.9 1.5 15.9 1.6Z" fill="white"/>
</svg>
